# xmcd CD database file
#
# Track frame offsets:
#	183
#	13593
#	27063
#	38915
#	51295
#	59465
#	69620
#	83585
#	97353
#	112753
#	121128
#	131795
#	143170
#	153278
#	164078
#	181375
#	196600
#
# Disc length: 3563 seconds
#
# Revision: 0
# Processed by: cddbd v1.4PL0 Copyright (c) Steve Scherf et al.
# Submitted via: CDex 1.50
#
DISCID=e50de911
DTITLE=Varios Artistas - Big Boss Men - Road to the Blues
DYEAR=1900
DGENRE=Blues
TTITLE0=Earl Hooker Blues For Dancers
TTITLE1=Jimmy Reed Hard Walking Hanna
TTITLE2=Jimmy Reed Xmas Present Blues
TTITLE3=Big Joe Williams Blues On Decoration Day
TTITLE4=Big Joe Williams My Troubles
TTITLE5=Big Joe Williams What You Gonna Do For Me
TTITLE6=Lightnini' Hopkins War Is Starting Again
TTITLE7=Lightnin' Hopkins Louisiana Woman
TTITLE8=Homesick James Lonesome Road
TTITLE9=Homesick James The Woman I Love
TTITLE10=Rossevelt Sykes I'm Gonna Get Even With You
TTITLE11=Rossevelt Sykes Bird Nest On The Ground
TTITLE12=Roosevelt Sykes Bad News
TTITLE13=Rosevelt Sykes Hey Woman
TTITLE14=Jimmy Reed Cry Before I Go
TTITLE15=Jimmy Reed Down At The Corner Grocery Store
TTITLE16=Jimmy Reed Big Leg Woman
EXTD=
EXTT0=
EXTT1=
EXTT2=
EXTT3=
EXTT4=
EXTT5=
EXTT6=
EXTT7=
EXTT8=
EXTT9=
EXTT10=
EXTT11=
EXTT12=
EXTT13=
EXTT14=
EXTT15=
EXTT16=
PLAYORDER=
